Coordinates
version=1
nRows=14
nColumns=24
inDegrees=yes

Units are S.I. units (second, meters, Newtons, ...)
Angles are in degrees.

endheader
time	pelvis_tilt	pelvis_list	pelvis_rotation	pelvis_tx	pelvis_ty	pelvis_tz	hip_flexion_r	hip_adduction_r	hip_rotation_r	knee_angle_r	ankle_angle_r	subtalar_angle_r	mtp_angle_r	hip_flexion_l	hip_adduction_l	hip_rotation_l	knee_angle_l	ankle_angle_l	subtalar_angle_l	mtp_angle_l	lumbar_extension	lumbar_bending	lumbar_rotation
      1.05866667	     -0.93662622	     -4.12859277	     -2.42796894	      0.38216414	      1.00282751	      0.30625010	     16.01368781	      7.86432135	     -2.47011887	    -22.02854834	      0.22287637	    -16.42167149	     -0.16357893	     20.78157622	     -9.67352012	     -6.11655474	    -83.04891394	      3.60082081	     -2.24152534	     -0.88339243	    -10.64284161	      6.51398607	      3.52975809
      1.06283333	     -0.65404797	     -4.05255041	     -2.65349387	      0.38708622	      1.00439545	      0.30695440	     15.17366481	      7.85595457	     -2.18817546	    -21.61116965	      0.27322087	    -16.33907949	     -0.14755320	     21.10829489	     -9.65299000	     -6.29438046	    -82.84886856	      3.77297649	     -2.02737079	     -0.89518120	    -10.97965415	      6.33871687	      3.79798407
      1.06700000	     -0.35056163	     -3.94743336	     -2.87637110	      0.39199696	      1.00601537	      0.30763941	     14.30874566	      7.80945024	     -1.89496954	    -21.18738866	      0.33342076	    -16.34049007	     -0.12917718	     21.39290248	     -9.59646875	     -6.49301429	    -82.56837814	      3.86686872	     -1.93886942	     -0.91403972	    -11.33714959	      6.14184455	      4.05348702
      1.07116667	     -0.13256472	     -3.86809074	     -3.06784256	      0.39687286	      1.00741815	      0.30824290	     13.54755771	      7.76891306	     -1.66940935	    -20.77869561	      0.40457855	    -16.24330620	     -0.11255622	     21.78526453	     -9.55991729	     -6.64377392	    -82.27469772	      4.00671883	     -1.79489839	     -0.92744743	    -11.59525290	      5.98294591	      4.24266505
      1.07533333	      0.10515581	     -3.78233242	     -3.26586546	      0.40173056	      1.00883790	      0.30886546	     12.76358401	      7.71644379	     -1.43643263	    -20.36109157	      0.44689566	    -16.14749603	     -0.09834617	     22.13733496	     -9.52428153	     -6.81789233	    -81.91960299	      4.11721941	     -1.69634513	     -0.94141159	    -11.87634497	      5.80173347	      4.43225502
      1.07950000	      0.31722750	     -3.69025763	     -3.45775374	      0.40658840	      1.01020270	      0.30947043	     12.00913656	      7.64838627	     -1.21862881	    -19.94446721	      0.49416458	    -16.03658305	     -0.08540639	     22.50315480	     -9.48174047	     -6.99286475	    -81.50670829	      4.20941854	     -1.63093253	     -0.95588359	    -12.12549028	      5.61945440	      4.61396815
      1.08366667	      0.53450058	     -3.61131785	     -3.64168140	      0.41140778	      1.01152334	      0.31006758	     11.25211903	      7.58662448	     -1.01330217	    -19.52956272	      0.54775106	    -15.91337091	     -0.07507439	     22.85647220	     -9.45522305	     -7.16316424	    -81.05245933	      4.29913276	     -1.57345062	     -0.96906110	    -12.38680023	      5.44861911	      4.78616407
      1.08783333	      0.71918499	     -3.52159569	     -3.82450202	      0.41622477	      1.01277210	      0.31064772	     10.53655946	      7.50595492	     -0.82085147	    -19.12282682	      0.59931025	    -15.78007668	     -0.06688342	     23.22998267	     -9.41943926	     -7.34203110	    -80.54335878	      4.36117320	     -1.56067573	     -0.98260257	    -12.60564502	      5.26993339	      4.94530730
      1.09200000	      0.90082423	     -3.44253075	     -3.99768015	      0.42102390	      1.01397501	      0.31120120	      9.82480117	      7.42783139	     -0.64555257	    -18.71374470	      0.65729834	    -15.62901499	     -0.06099689	     23.59557867	     -9.39277187	     -7.51263903	    -79.98806858	      4.42436854	     -1.54839164	     -0.99499565	    -12.82191795	      5.10494021	      5.09480964
      1.09616667	      1.06219927	     -3.35361931	     -4.17337390	      0.42580148	      1.01511272	      0.31175603	      9.14506828	      7.33446387	     -0.48042710	    -18.31973238	      0.71965398	    -15.46608051	     -0.05697237	     23.96773279	     -9.35917854	     -7.69449852	    -79.38060951	      4.46529189	     -1.57305880	     -1.00772936	    -13.01632131	      4.92449872	      5.23571130
      1.10033333	      1.21803464	     -3.28907539	     -4.33766152	      0.43055971	      1.01619186	      0.31229072	      8.46918734	      7.26114611	     -0.32694771	    -17.91888033	      0.77812415	    -15.29853590	     -0.05488505	     24.33634208	     -9.35188158	     -7.86169175	    -78.73548584	      4.51268309	     -1.59653411	     -1.02064451	    -13.20792079	      4.77706096	      5.37674430
      1.10450000	      1.34753257	     -3.20688275	     -4.50702857	      0.43531635	      1.01719910	      0.31280715	      7.83223153	      7.16280150	     -0.18766359	    -17.53515827	      0.84903717	    -15.10939136	     -0.05356418	     24.71324986	     -9.32714009	     -8.04626891	    -78.03327615	      4.54030233	     -1.65711082	     -1.03389174	    -13.36471280	      4.61249293	      5.49548178
      1.10866667	      1.46633878	     -3.14380150	     -4.66484080	      0.44005616	      1.01814463	      0.31330449	      7.20780017	      7.08040323	     -0.06594940	    -17.15077642	      0.91967969	    -14.91471595	     -0.05414046	     25.09077043	     -9.32064487	     -8.21497318	    -77.29185173	      4.56816662	     -1.72371898	     -1.04866704	    -13.51192499	      4.47080826	      5.62524154
      1.11283333	      1.47208097	     -3.12412118	     -4.79656826	      0.44477958	      1.01881132	      0.31373889	      6.71177985	      7.04664316	      0.02419982	    -16.77504341	      0.93583962	    -14.73211561	     -0.05331644	     25.60364863	     -9.35769765	     -8.33273270	    -76.54923014	      4.60339188	     -1.77552481	     -1.05541383	    -13.53211657	      4.40273375	      5.67071389
